<?xml version="1.0" encoding="utf-8"?>
<!-- Generator: Adobe Illustrator 18.1.1, SVG Export Plug-In . SVG Version: 6.00 Build 0)  -->
<svg version="1.1" id="Layer_1" xmlns="http://www.w3.org/2000/svg" xmlns:xlink="http://www.w3.org/1999/xlink" x="0px" y="0px" height="30" width="200"
	 viewBox="0 0 647 113" enable-background="new 0 0 647 113" xml:space="preserve">
<g>
	<g>
		<path fill="#FF0000" d="M456.3,94.3c0-0.1,0-0.2,0.1-0.3c0.1-0.1,0.2-0.2,0.4-0.2h12.8c0.1,0,0.3,0.1,0.4,0.2
			c0.1,0.1,0.1,0.2,0.1,0.3v0.9c0,0.3-0.2,0.5-0.5,0.5h-12.8c-0.1,0-0.3-0.1-0.4-0.2c-0.1-0.1-0.1-0.2-0.1-0.4V94.3z M462.1,97.6
			c0-0.1,0-0.3,0.2-0.4c0.1-0.1,0.2-0.1,0.4-0.1h1.1c0.1,0,0.3,0,0.4,0.1c0.1,0.1,0.1,0.2,0.1,0.4v9.7c0,0.1,0,0.3-0.1,0.4
			c-0.1,0.1-0.2,0.1-0.4,0.1h-1.1c-0.1,0-0.3,0-0.4-0.1c-0.1-0.1-0.2-0.2-0.2-0.4V97.6z"/>
		<path fill="#FF0000" d="M477.8,106h9.7c0.1,0,0.2,0,0.3,0.1c0.1,0.1,0.2,0.2,0.2,0.4v0.9c0,0.1,0,0.2-0.2,0.3
			c-0.1,0.1-0.2,0.2-0.3,0.2h-11.3c-0.1,0-0.2,0-0.3-0.2c-0.1-0.1-0.2-0.2-0.2-0.3V94.3c0-0.1,0-0.3,0.2-0.4
			c0.1-0.1,0.2-0.2,0.3-0.2h11.2c0.1,0,0.3,0.1,0.4,0.2c0.1,0.1,0.1,0.2,0.1,0.4v0.9c0,0.1,0,0.2-0.1,0.3c-0.1,0.1-0.2,0.2-0.4,0.2
			h-9.6V106z M479.3,100.1c0-0.1,0-0.3,0.1-0.4c0.1-0.1,0.2-0.1,0.4-0.1h6.9c0.1,0,0.2,0,0.3,0.1c0.1,0.1,0.2,0.2,0.2,0.4v0.8
			c0,0.1-0.1,0.3-0.2,0.4c-0.1,0.1-0.2,0.1-0.3,0.1h-6.9c-0.1,0-0.3,0-0.4-0.1c-0.1-0.1-0.1-0.2-0.1-0.4V100.1z"/>
		<path fill="#FF0000" d="M493.6,95.3c0-0.3,0.1-0.7,0.4-1c0.3-0.3,0.6-0.5,1.1-0.5h10.7c0.1,0,0.3,0.1,0.4,0.2
			c0.1,0.1,0.1,0.2,0.1,0.3v0.9c0,0.1,0,0.3-0.1,0.4c-0.1,0.1-0.2,0.1-0.4,0.1h-10.1V106h10.5c0.1,0,0.3,0,0.4,0.1
			c0.1,0.1,0.1,0.2,0.1,0.4v0.9c0,0.1,0,0.2-0.1,0.3c-0.1,0.1-0.2,0.2-0.4,0.2h-11.1c-0.4,0-0.8-0.2-1.1-0.5c-0.3-0.3-0.4-0.7-0.4-1
			V95.3z"/>
		<path fill="#FF0000" d="M512.4,94.3c0-0.1,0-0.3,0.1-0.4c0.1-0.1,0.2-0.2,0.4-0.2h1.1c0.1,0,0.3,0.1,0.4,0.2
			c0.1,0.1,0.1,0.2,0.1,0.4v13.1c0,0.1,0,0.3-0.1,0.4c-0.1,0.1-0.2,0.2-0.4,0.2h-1.1c-0.1,0-0.3,0-0.4-0.2c-0.1-0.1-0.1-0.2-0.1-0.4
			V94.3z M516.1,100c0-0.1,0-0.3,0.1-0.4c0.1-0.1,0.2-0.2,0.4-0.2h8v-5.2c0-0.1,0-0.3,0.2-0.4c0.1-0.1,0.2-0.2,0.3-0.2h1.1
			c0.1,0,0.3,0.1,0.4,0.2c0.1,0.1,0.2,0.2,0.2,0.4v13.1c0,0.1-0.1,0.3-0.2,0.4c-0.1,0.1-0.2,0.2-0.4,0.2h-1.1c-0.1,0-0.2,0-0.3-0.2
			c-0.1-0.1-0.2-0.2-0.2-0.4v-5.9h-8c-0.1,0-0.3,0-0.4-0.1c-0.1-0.1-0.1-0.2-0.1-0.4V100z"/>
		<path fill="#FF0000" d="M544.4,94.3c0-0.1,0.1-0.3,0.2-0.4c0.1-0.1,0.2-0.2,0.4-0.2h0.9c0.1,0,0.3,0.1,0.4,0.2
			c0.1,0.1,0.2,0.2,0.2,0.4v13.1c0,0.1,0,0.3-0.2,0.4c-0.1,0.1-0.2,0.1-0.4,0.1h-1c-0.1,0-0.3,0-0.5-0.1c-0.2-0.1-0.3-0.2-0.4-0.3
			l-11.5-13.2c-0.1-0.1-0.1-0.2-0.1-0.3c0-0.1,0.1-0.1,0.2-0.1h1.7c0.1,0,0.3,0.1,0.4,0.2l9.8,11.3V94.3z M534.3,107.4
			c0,0.1,0,0.3-0.1,0.4c-0.1,0.1-0.2,0.1-0.4,0.1h-0.9c-0.1,0-0.3,0-0.4-0.1c-0.1-0.1-0.1-0.2-0.1-0.4V96.6c0-0.1,0-0.2,0.1-0.2
			c0.1,0,0.2,0.1,0.3,0.2l1.3,1.5c0.1,0.2,0.2,0.3,0.2,0.4V107.4z"/>
		<path fill="#FF0000" d="M552.1,95.6c0-0.2,0.1-0.4,0.2-0.7c0.1-0.2,0.3-0.4,0.4-0.6c0.2-0.2,0.4-0.3,0.6-0.4
			c0.2-0.1,0.4-0.2,0.7-0.2h11c0.2,0,0.4,0.1,0.7,0.2c0.2,0.1,0.4,0.3,0.6,0.4c0.2,0.2,0.3,0.4,0.4,0.6c0.1,0.2,0.2,0.4,0.2,0.7V106
			c0,0.2-0.1,0.4-0.2,0.7c-0.1,0.2-0.3,0.4-0.4,0.6c-0.2,0.2-0.4,0.3-0.6,0.4c-0.2,0.1-0.4,0.2-0.7,0.2h-11c-0.2,0-0.4-0.1-0.7-0.2
			c-0.2-0.1-0.4-0.3-0.6-0.4c-0.2-0.2-0.3-0.4-0.4-0.6c-0.1-0.2-0.2-0.4-0.2-0.7V95.6z M554.2,106h10.4V95.6h-10.4V106z"/>
		<path fill="#FF0000" d="M572.4,94.3c0-0.1,0-0.2,0.1-0.3c0.1-0.1,0.2-0.2,0.4-0.2h1.1c0.1,0,0.3,0.1,0.4,0.2
			c0.1,0.1,0.1,0.2,0.1,0.3V106h9.1c0.1,0,0.3,0,0.4,0.1c0.1,0.1,0.2,0.2,0.2,0.4v0.8c0,0.1-0.1,0.3-0.2,0.4
			c-0.1,0.1-0.2,0.2-0.4,0.2h-10.7c-0.1,0-0.3,0-0.4-0.2c-0.1-0.1-0.1-0.2-0.1-0.4V94.3z"/>
		<path fill="#FF0000" d="M589.9,95.6c0-0.2,0.1-0.4,0.2-0.7c0.1-0.2,0.3-0.4,0.4-0.6c0.2-0.2,0.4-0.3,0.6-0.4
			c0.2-0.1,0.4-0.2,0.7-0.2h11c0.2,0,0.4,0.1,0.7,0.2c0.2,0.1,0.4,0.3,0.6,0.4c0.2,0.2,0.3,0.4,0.4,0.6c0.1,0.2,0.2,0.4,0.2,0.7V106
			c0,0.2-0.1,0.4-0.2,0.7c-0.1,0.2-0.3,0.4-0.4,0.6c-0.2,0.2-0.4,0.3-0.6,0.4c-0.2,0.1-0.4,0.2-0.7,0.2h-11c-0.2,0-0.4-0.1-0.7-0.2
			c-0.2-0.1-0.4-0.3-0.6-0.4c-0.2-0.2-0.3-0.4-0.4-0.6c-0.1-0.2-0.2-0.4-0.2-0.7V95.6z M592,106h10.4V95.6H592V106z"/>
		<path fill="#FF0000" d="M622.9,93.8c0.4,0,0.8,0.2,1.1,0.5c0.3,0.3,0.5,0.7,0.5,1.1v1.9c0,0.1,0,0.3-0.2,0.4
			c-0.1,0.1-0.2,0.2-0.4,0.2h-1.1c-0.3,0-0.5-0.2-0.5-0.5v-1.6h-9.9v11.7c0,0.1,0,0.3-0.1,0.4c-0.1,0.1-0.2,0.2-0.4,0.2h-1.1
			c-0.1,0-0.3,0-0.4-0.2c-0.1-0.1-0.2-0.2-0.2-0.4V94.3c0-0.1,0-0.3,0.2-0.4c0.1-0.1,0.2-0.2,0.4-0.2H622.9z M623.9,100
			c0.1,0,0.3,0,0.4,0.1c0.1,0.1,0.2,0.2,0.2,0.4v5.8c0,0.4-0.1,0.8-0.4,1.1c-0.3,0.3-0.7,0.5-1.1,0.5h-8.5c-0.1,0-0.2,0-0.3-0.2
			c-0.1-0.1-0.2-0.2-0.2-0.4v-0.8c0-0.1,0-0.3,0.2-0.4c0.1-0.1,0.2-0.1,0.3-0.1h7.9v-4.3h-5.1c-0.1,0-0.3,0-0.4-0.2
			c-0.1-0.1-0.2-0.2-0.2-0.4v-0.7c0-0.1,0.1-0.3,0.2-0.4c0.1-0.1,0.2-0.1,0.4-0.1H623.9z"/>
		<path fill="#FF0000" d="M630.2,94.2c-0.1-0.1-0.1-0.2-0.1-0.3c0-0.1,0.1-0.2,0.2-0.2h1.9c0.1,0,0.3,0.1,0.4,0.2l3.8,4.9
			c0,0,0.1,0.1,0.1,0.1c0,0.1,0,0.1-0.1,0.1l-1,1.2c-0.1,0.1-0.1,0.1-0.2,0.1c-0.1,0-0.1,0-0.2-0.1L630.2,94.2z M638.4,101.7v5.7
			c0,0.3-0.2,0.5-0.5,0.5h-1.1c-0.3,0-0.5-0.2-0.5-0.5v-5.5c0-0.1,0-0.2,0.1-0.4c0.1-0.1,0.1-0.2,0.2-0.3l5.5-7.2
			c0.1-0.1,0.2-0.2,0.4-0.2h1.8c0.1,0,0.2,0.1,0.2,0.2c0,0,0,0.1-0.1,0.3L638.4,101.7z"/>
	</g>
	<g>
		<linearGradient id="SVGID_1_" gradientUnits="userSpaceOnUse" x1="402.5807" y1="5.7863" x2="402.5807" y2="81.0739">
			<stop  offset="0" style="stop-color:#005AAA"/>
			<stop  offset="1" style="stop-color:#000046"/>
		</linearGradient>
		<path fill="url(#SVGID_1_)" d="M401.2,15.2h3c7.8,0,15.1,3.8,21.9,11.5c4,5.9,6,11.4,6,16.5v4.8l-0.4,0.4h-51.2
			c0,2.6,1.5,6.2,4.6,10.7c4.8,5.5,10.7,8.2,17.5,8.2c5.8,0,11.1-2.1,15.9-6.4h0.2l4.8,4.8c-6.1,5.8-12.7,8.6-19.7,8.6h-2.6
			c-7.9,0-15.2-3.7-21.7-11.1c-4.3-5.7-6.4-11.4-6.4-17.1v-3c0-7.2,3.3-14.1,10-20.7C389,17.6,395.1,15.2,401.2,15.2z M380.5,41.1
			h44.2c0-2.6-1.5-6.2-4.6-10.7c-4.9-5.5-10.9-8.2-17.9-8.2c-7.5,0-13.8,3.5-18.7,10.7C381.5,36.4,380.5,39.2,380.5,41.1z"/>
		<linearGradient id="SVGID_2_" gradientUnits="userSpaceOnUse" x1="467.6873" y1="3.8407" x2="467.6873" y2="94.7632">
			<stop  offset="0" style="stop-color:#005AAA"/>
			<stop  offset="1" style="stop-color:#000046"/>
		</linearGradient>
		<path fill="url(#SVGID_2_)" d="M468.3,15.2h2.8c8.3,0,15.7,4,22.3,11.9c1.2,1.7,1.8,2.7,1.8,3l-6,3.4c-5-7.5-11.7-11.3-19.9-11.3
			c-8.4,0-15,4.2-19.9,12.7c-1.5,2.9-2.2,6.9-2.2,11.9v10.2h22.1l0.4,0.4v6.2l-0.4,0.4h-22.1v43.5l-0.4,0.4h-6.2l-0.4-0.4V43.3
			c0-7.9,3.7-15.1,11.1-21.7C456.9,17.3,462.6,15.2,468.3,15.2z"/>
		<linearGradient id="SVGID_3_" gradientUnits="userSpaceOnUse" x1="506.7719" y1="20.5602" x2="506.7719" y2="79.5976">
			<stop  offset="0" style="stop-color:#005AAA"/>
			<stop  offset="1" style="stop-color:#000046"/>
		</linearGradient>
		<path fill="url(#SVGID_3_)" d="M503.7,18.6h6.2l0.4,0.4v54.9l-0.4,0.4h-6.2l-0.4-0.4V19L503.7,18.6z"/>
		<linearGradient id="SVGID_4_" gradientUnits="userSpaceOnUse" x1="547.866" y1="5.7863" x2="547.866" y2="81.0739">
			<stop  offset="0" style="stop-color:#005AAA"/>
			<stop  offset="1" style="stop-color:#000046"/>
		</linearGradient>
		<path fill="url(#SVGID_4_)" d="M546.3,15.2h3c8,0,15.3,3.8,21.9,11.3c4.2,5.6,6.2,11.3,6.2,16.9v30.5l-0.4,0.4h-6.2l-0.4-0.4V47.3
			c0-9.8-3.1-16.7-9.2-20.7c-3.6-2.9-8.1-4.4-13.5-4.4c-9.4,0-16.3,4.8-20.9,14.5c-0.9,2.6-1.4,5.8-1.4,9.6v27.5l-0.4,0.4h-6.2
			l-0.4-0.4V43.3c0-8.7,4.4-16.4,13.1-23.3C536.8,16.8,541.8,15.2,546.3,15.2z"/>
		<linearGradient id="SVGID_5_" gradientUnits="userSpaceOnUse" x1="614.9836" y1="5.7863" x2="614.9836" y2="81.0739">
			<stop  offset="0" style="stop-color:#005AAA"/>
			<stop  offset="1" style="stop-color:#000046"/>
		</linearGradient>
		<path fill="url(#SVGID_5_)" d="M613.6,15.2h3c7.8,0,15.1,3.8,21.9,11.5c4,5.9,6,11.4,6,16.5v4.8l-0.4,0.4h-51.2
			c0,2.6,1.5,6.2,4.6,10.7c4.8,5.5,10.7,8.2,17.5,8.2c5.8,0,11.1-2.1,15.9-6.4h0.2l4.8,4.8c-6.1,5.8-12.7,8.6-19.7,8.6h-2.6
			c-7.9,0-15.2-3.7-21.7-11.1c-4.3-5.7-6.4-11.4-6.4-17.1v-3c0-7.2,3.3-14.1,10-20.7C601.5,17.6,607.5,15.2,613.6,15.2z M592.9,41.1
			h44.2c0-2.6-1.5-6.2-4.6-10.7c-4.9-5.5-10.9-8.2-17.9-8.2c-7.5,0-13.8,3.5-18.7,10.7C593.9,36.4,592.9,39.2,592.9,41.1z"/>
	</g>
	<g>
		<linearGradient id="SVGID_6_" gradientUnits="userSpaceOnUse" x1="324.2831" y1="108.5071" x2="279.3178" y2="0.853">
			<stop  offset="0" style="stop-color:#005AAA"/>
			<stop  offset="1" style="stop-color:#000046"/>
		</linearGradient>
		<path fill="url(#SVGID_6_)" d="M326.5,15.5h-66.1l-6.8-11.9h-14.1l6.8,11.9l6.8,11.9h14.1h38c-5.6,10.3-13.6,19.1-23.3,25.6
			c-3.3,2.2-6.8,4.2-10.5,5.8l7.7,13.6l1.6,2.8l8.6,15.1l9.8,17.3c3.6-1.8,7.2-3.8,10.6-6l-20.1-35.1
			C307.6,54.9,320.9,36.8,326.5,15.5z"/>
		<g>
			<linearGradient id="SVGID_7_" gradientUnits="userSpaceOnUse" x1="366.731" y1="7.7805" x2="331.0378" y2="76.4592">
				<stop  offset="0" style="stop-color:#FF0000"/>
				<stop  offset="1" style="stop-color:#960000"/>
			</linearGradient>
			<path fill="url(#SVGID_7_)" d="M357.1,3.6c-2.6,30.3-16.9,57.2-38.4,76.3l6.1,10.7c22.2-18.9,37.8-45.2,43-75.1
				c0.7-3.9,1.2-7.9,1.5-11.9H357.1z"/>
			<linearGradient id="SVGID_8_" gradientUnits="userSpaceOnUse" x1="320.0984" y1="75.4494" x2="351.853" y2="8.7399">
				<stop  offset="0" style="stop-color:#FF0000"/>
				<stop  offset="1" style="stop-color:#960000"/>
			</linearGradient>
			<path fill="url(#SVGID_8_)" d="M357.1,3.6h-12.5c-0.4,4-1,8-1.9,11.9c-4.5,20.8-15.4,39.3-30.4,53.3l6.3,11.1
				C340.2,60.8,354.5,33.9,357.1,3.6z"/>
		</g>
		<linearGradient id="SVGID_9_" gradientUnits="userSpaceOnUse" x1="287.3285" y1="-1.4203" x2="308.7444" y2="79.0742">
			<stop  offset="0" style="stop-color:#005AAA"/>
			<stop  offset="1" style="stop-color:#000046"/>
		</linearGradient>
		<path fill="url(#SVGID_9_)" d="M335.9,15.5c0.9-3.9,1.6-7.8,2-11.9h-9.2H313h-73.6l20.9,11.9h66.1c-5.5,21.3-18.9,39.4-36.8,51.1
			l20.1,35.1c3.3-2.1,6.5-4.2,9.5-6.6l-7.9-13.8l0,0l-4.5-7.8h0l-3.4-5.9C319.4,54.5,331,36.3,335.9,15.5z"/>
	</g>
	<g>
		<g>
			<g>
				<linearGradient id="SVGID_10_" gradientUnits="userSpaceOnUse" x1="92.4149" y1="5.7862" x2="92.4149" y2="81.074">
					<stop  offset="0" style="stop-color:#005AAA"/>
					<stop  offset="1" style="stop-color:#000046"/>
				</linearGradient>
				<path fill="url(#SVGID_10_)" d="M90.8,15.3H94c7.5,0,14.6,3.6,21.3,10.7c4.4,6,6.6,11.8,6.6,17.3v3.2c0,7.5-3.6,14.6-10.7,21.3
					c-6,4.4-11.8,6.6-17.3,6.6h-3.2c-7.5,0-14.6-3.6-21.3-10.7c-4.4-6-6.6-11.8-6.6-17.3v-3.2c0-7.5,3.6-14.6,10.7-21.3
					C79.5,17.5,85.3,15.3,90.8,15.3z M69.9,45.1c0,8.7,4.3,15.4,12.9,20.1c3.2,1.5,6.4,2.2,9.9,2.2c8.7,0,15.4-4.3,20.1-12.9
					c1.5-3.2,2.2-6.4,2.2-9.9c0-8.7-4.3-15.4-12.9-20.1c-3.2-1.5-6.4-2.2-9.9-2.2c-8.7,0-15.4,4.3-20.1,12.9
					C70.6,38.4,69.9,41.7,69.9,45.1z"/>
				<linearGradient id="SVGID_11_" gradientUnits="userSpaceOnUse" x1="157.5785" y1="6.2505" x2="157.5785" y2="77.8715">
					<stop  offset="0" style="stop-color:#005AAA"/>
					<stop  offset="1" style="stop-color:#000046"/>
				</linearGradient>
				<path fill="url(#SVGID_11_)" d="M158.2,15.3h2.8c8.3,0,15.7,4,22.3,11.9c1.2,1.7,1.8,2.7,1.8,3l-6,3.4
					c-5-7.5-11.7-11.3-19.9-11.3c-8.4,0-15.1,4.2-19.9,12.7c-1.5,2.9-2.2,6.9-2.2,11.9v7.2h22.1l0.4,0.4v6.2l-0.4,0.4h-22.1v26.6
					l-0.4,0.4h-6.2l-0.4-0.4V43.5c0-7.9,3.7-15.2,11.1-21.7C146.8,17.5,152.5,15.3,158.2,15.3z"/>
				<linearGradient id="SVGID_12_" gradientUnits="userSpaceOnUse" x1="220.7309" y1="5.7863" x2="220.7309" y2="81.0739">
					<stop  offset="0" style="stop-color:#005AAA"/>
					<stop  offset="1" style="stop-color:#000046"/>
				</linearGradient>
				<path fill="url(#SVGID_12_)" d="M193.6,3.3h6.2l0.4,0.4v24.9h22.1l0.4,0.4v6.4l-0.4,0.4h-22.1v7c0,11.3,4.7,18.9,14.1,22.9
					c2.7,1.1,5.4,1.6,8,1.6c8.4,0,15.1-3.8,19.9-11.3c2.5,1.3,4.6,2.5,6,3.6c-3.2,6.1-9,10.7-17.3,13.7c-2.7,0.7-5,1-6.8,1h-2.8
					c-8.1,0-15.4-3.8-21.9-11.3c-4.2-5.6-6.2-11.2-6.2-16.9V3.7L193.6,3.3z"/>
			</g>
		</g>
		<g>
			<linearGradient id="SVGID_13_" gradientUnits="userSpaceOnUse" x1="29.8613" y1="1.1504" x2="29.8613" y2="81.4066">
				<stop  offset="0" style="stop-color:#005AAA"/>
				<stop  offset="1" style="stop-color:#000046"/>
			</linearGradient>
			<path fill="url(#SVGID_13_)" d="M46.2,57.2c0-3.2-1.2-5.9-3.6-8.1c-2.4-2.2-6.7-4-12.9-5.5c-7.5-1.8-13.3-4.4-17.5-7.9
				C8,32.3,5.9,27.9,5.9,22.6c0-5.5,2.3-10.1,6.8-13.8C17.2,5.1,23,3.3,30.2,3.3c7.7,0,13.9,2.1,18.5,6.4c4.6,4.2,6.8,9.2,6.6,14.8
				l-0.1,0.3h-9.1c0-4.1-1.4-7.5-4.1-10.1c-2.7-2.6-6.7-3.8-11.8-3.8c-4.8,0-8.4,1.1-10.9,3.2c-2.5,2.2-3.8,5-3.8,8.4
				c0,3.1,1.4,5.6,4.1,7.7c2.7,2.1,7.2,3.9,13.4,5.4c7.4,1.8,13.1,4.6,17,8.2c3.9,3.6,5.8,8,5.8,13.4c0,5.7-2.3,10.3-7,13.7
				C44.1,74.3,38.1,76,30.5,76c-7.1,0-13.3-1.9-18.7-5.8c-5.4-3.8-8-9-7.9-15.4L4,54.6h9.1c0,4.5,1.7,8,5,10.3
				c3.3,2.4,7.5,3.5,12.4,3.5c4.8,0,8.6-1,11.5-3C44.8,63.4,46.2,60.7,46.2,57.2z"/>
		</g>
	</g>
	<linearGradient id="SVGID_14_" gradientUnits="userSpaceOnUse" x1="506.7719" y1="3.7114" x2="506.7719" y2="17.384">
		<stop  offset="0" style="stop-color:#FF0000"/>
		<stop  offset="1" style="stop-color:#960000"/>
	</linearGradient>
	<circle fill="url(#SVGID_14_)" cx="506.8" cy="9.7" r="6.4"/>
</g>
<rect x="-175.8" y="898.6" fill="#000046" width="1000" height="1000"/>
<rect x="1368.3" y="898.6" fill="#000046" width="1000" height="1000"/>
<rect x="2873.9" y="898.6" fill="#000046" width="1000" height="1000"/>
<g>
	<linearGradient id="SVGID_15_" gradientUnits="userSpaceOnUse" x1="1984.7396" y1="267.9361" x2="1796.9716" y2="-181.6102">
		<stop  offset="0" style="stop-color:#005AAA"/>
		<stop  offset="1" style="stop-color:#000046"/>
	</linearGradient>
	<path fill="url(#SVGID_15_)" d="M1993.8-120.5h-276l-28.5-49.7h-59l28.5,49.7l28.5,49.7h59h158.6c-23.2,43.1-56.7,79.9-97.2,107.1
		c-13.8,9.2-28.4,17.4-43.6,24.2l32.2,56.6l6.6,11.7l35.9,63.2l41.1,72.4c15.2-7.6,30-15.9,44.3-24.9L1840,92.7
		C1914.9,43.9,1970.8-31.7,1993.8-120.5z"/>
	<g>
		<linearGradient id="SVGID_16_" gradientUnits="userSpaceOnUse" x1="2161.9954" y1="-152.6821" x2="2012.9462" y2="134.1094">
			<stop  offset="0" style="stop-color:#FF0000"/>
			<stop  offset="1" style="stop-color:#960000"/>
		</linearGradient>
		<path fill="url(#SVGID_16_)" d="M2121.9-170.2c-10.9,126.5-70.7,239-160.4,318.6l25.7,44.8c92.6-78.9,157.8-188.8,179.5-313.7
			c2.8-16.3,5-32.9,6.3-49.7H2121.9z"/>
		<linearGradient id="SVGID_17_" gradientUnits="userSpaceOnUse" x1="1967.2649" y1="129.8923" x2="2099.8672" y2="-148.6758">
			<stop  offset="0" style="stop-color:#FF0000"/>
			<stop  offset="1" style="stop-color:#960000"/>
		</linearGradient>
		<path fill="url(#SVGID_17_)" d="M2121.9-170.2h-52.1c-1.6,16.9-4.4,33.4-7.9,49.7c-18.9,87-64.1,164.1-126.9,222.7l26.5,46.2
			C2051.2,68.9,2110.9-43.6,2121.9-170.2z"/>
	</g>
	<linearGradient id="SVGID_18_" gradientUnits="userSpaceOnUse" x1="1830.4227" y1="-191.1032" x2="1919.8524" y2="145.0289">
		<stop  offset="0" style="stop-color:#005AAA"/>
		<stop  offset="1" style="stop-color:#000046"/>
	</linearGradient>
	<path fill="url(#SVGID_18_)" d="M2033.1-120.5c3.8-16.2,6.7-32.8,8.5-49.7H2003h-65.4h-307.2l87.5,49.7h276
		c-23.1,88.8-78.9,164.4-153.9,213.2l84.1,146.8c13.7-8.6,27-17.7,39.8-27.5l-32.9-57.4l-0.1-0.1l-18.6-32.5h0l-14.1-24.7
		C1964.5,42.3,2012.8-33.7,2033.1-120.5z"/>
</g>
<g>
	<g>
		<path fill="#FF0000" d="M456.3,1437.3c0-0.1,0-0.2,0.1-0.3c0.1-0.1,0.2-0.2,0.4-0.2h12.8c0.1,0,0.3,0.1,0.4,0.2
			c0.1,0.1,0.1,0.2,0.1,0.3v0.9c0,0.3-0.2,0.5-0.5,0.5h-12.8c-0.1,0-0.3-0.1-0.4-0.2c-0.1-0.1-0.1-0.2-0.1-0.4V1437.3z
			 M462.1,1440.7c0-0.1,0-0.3,0.2-0.4c0.1-0.1,0.2-0.1,0.4-0.1h1.1c0.1,0,0.3,0,0.4,0.1c0.1,0.1,0.1,0.2,0.1,0.4v9.7
			c0,0.1,0,0.3-0.1,0.4c-0.1,0.1-0.2,0.1-0.4,0.1h-1.1c-0.1,0-0.3,0-0.4-0.1c-0.1-0.1-0.2-0.2-0.2-0.4V1440.7z"/>
		<path fill="#FF0000" d="M477.8,1449h9.7c0.1,0,0.2,0,0.3,0.1c0.1,0.1,0.2,0.2,0.2,0.4v0.9c0,0.1,0,0.2-0.2,0.3
			c-0.1,0.1-0.2,0.2-0.3,0.2h-11.3c-0.1,0-0.2,0-0.3-0.2c-0.1-0.1-0.2-0.2-0.2-0.3v-13.1c0-0.1,0-0.3,0.2-0.4
			c0.1-0.1,0.2-0.2,0.3-0.2h11.2c0.1,0,0.3,0.1,0.4,0.2c0.1,0.1,0.1,0.2,0.1,0.4v0.9c0,0.1,0,0.2-0.1,0.3c-0.1,0.1-0.2,0.2-0.4,0.2
			h-9.6V1449z M479.3,1443.1c0-0.1,0-0.3,0.1-0.4c0.1-0.1,0.2-0.1,0.4-0.1h6.9c0.1,0,0.2,0,0.3,0.1c0.1,0.1,0.2,0.2,0.2,0.4v0.8
			c0,0.1-0.1,0.3-0.2,0.4c-0.1,0.1-0.2,0.1-0.3,0.1h-6.9c-0.1,0-0.3,0-0.4-0.1c-0.1-0.1-0.1-0.2-0.1-0.4V1443.1z"/>
		<path fill="#FF0000" d="M493.6,1438.3c0-0.3,0.1-0.7,0.4-1c0.3-0.3,0.6-0.5,1.1-0.5h10.7c0.1,0,0.3,0.1,0.4,0.2
			c0.1,0.1,0.1,0.2,0.1,0.3v0.9c0,0.1,0,0.3-0.1,0.4c-0.1,0.1-0.2,0.1-0.4,0.1h-10.1v10.3h10.5c0.1,0,0.3,0,0.4,0.1
			c0.1,0.1,0.1,0.2,0.1,0.4v0.9c0,0.1,0,0.2-0.1,0.3c-0.1,0.1-0.2,0.2-0.4,0.2h-11.1c-0.4,0-0.8-0.2-1.1-0.5c-0.3-0.3-0.4-0.7-0.4-1
			V1438.3z"/>
		<path fill="#FF0000" d="M512.4,1437.3c0-0.1,0-0.3,0.1-0.4c0.1-0.1,0.2-0.2,0.4-0.2h1.1c0.1,0,0.3,0.1,0.4,0.2
			c0.1,0.1,0.1,0.2,0.1,0.4v13.1c0,0.1,0,0.3-0.1,0.4c-0.1,0.1-0.2,0.2-0.4,0.2h-1.1c-0.1,0-0.3,0-0.4-0.2c-0.1-0.1-0.1-0.2-0.1-0.4
			V1437.3z M516.1,1443.1c0-0.1,0-0.3,0.1-0.4c0.1-0.1,0.2-0.2,0.4-0.2h8v-5.2c0-0.1,0-0.3,0.2-0.4c0.1-0.1,0.2-0.2,0.3-0.2h1.1
			c0.1,0,0.3,0.1,0.4,0.2c0.1,0.1,0.2,0.2,0.2,0.4v13.1c0,0.1-0.1,0.3-0.2,0.4c-0.1,0.1-0.2,0.2-0.4,0.2h-1.1c-0.1,0-0.2,0-0.3-0.2
			c-0.1-0.1-0.2-0.2-0.2-0.4v-5.9h-8c-0.1,0-0.3,0-0.4-0.1c-0.1-0.1-0.1-0.2-0.1-0.4V1443.1z"/>
		<path fill="#FF0000" d="M544.4,1437.3c0-0.1,0.1-0.3,0.2-0.4c0.1-0.1,0.2-0.2,0.4-0.2h0.9c0.1,0,0.3,0.1,0.4,0.2
			c0.1,0.1,0.2,0.2,0.2,0.4v13.1c0,0.1,0,0.3-0.2,0.4c-0.1,0.1-0.2,0.1-0.4,0.1h-1c-0.1,0-0.3,0-0.5-0.1c-0.2-0.1-0.3-0.2-0.4-0.3
			l-11.5-13.2c-0.1-0.1-0.1-0.2-0.1-0.3c0-0.1,0.1-0.1,0.2-0.1h1.7c0.1,0,0.3,0.1,0.4,0.2l9.8,11.3V1437.3z M534.3,1450.4
			c0,0.1,0,0.3-0.1,0.4c-0.1,0.1-0.2,0.1-0.4,0.1h-0.9c-0.1,0-0.3,0-0.4-0.1c-0.1-0.1-0.1-0.2-0.1-0.4v-10.7c0-0.1,0-0.2,0.1-0.2
			c0.1,0,0.2,0.1,0.3,0.2l1.3,1.5c0.1,0.2,0.2,0.3,0.2,0.4V1450.4z"/>
		<path fill="#FF0000" d="M552.1,1438.7c0-0.2,0.1-0.4,0.2-0.7c0.1-0.2,0.3-0.4,0.4-0.6c0.2-0.2,0.4-0.3,0.6-0.4
			c0.2-0.1,0.4-0.2,0.7-0.2h11c0.2,0,0.4,0.1,0.7,0.2c0.2,0.1,0.4,0.3,0.6,0.4c0.2,0.2,0.3,0.4,0.4,0.6c0.1,0.2,0.2,0.4,0.2,0.7
			v10.4c0,0.2-0.1,0.4-0.2,0.7c-0.1,0.2-0.3,0.4-0.4,0.6c-0.2,0.2-0.4,0.3-0.6,0.4c-0.2,0.1-0.4,0.2-0.7,0.2h-11
			c-0.2,0-0.4-0.1-0.7-0.2c-0.2-0.1-0.4-0.3-0.6-0.4c-0.2-0.2-0.3-0.4-0.4-0.6c-0.1-0.2-0.2-0.4-0.2-0.7V1438.7z M554.2,1449h10.4
			v-10.3h-10.4V1449z"/>
		<path fill="#FF0000" d="M572.4,1437.3c0-0.1,0-0.2,0.1-0.3c0.1-0.1,0.2-0.2,0.4-0.2h1.1c0.1,0,0.3,0.1,0.4,0.2
			c0.1,0.1,0.1,0.2,0.1,0.3v11.7h9.1c0.1,0,0.3,0,0.4,0.1c0.1,0.1,0.2,0.2,0.2,0.4v0.8c0,0.1-0.1,0.3-0.2,0.4
			c-0.1,0.1-0.2,0.2-0.4,0.2h-10.7c-0.1,0-0.3,0-0.4-0.2c-0.1-0.1-0.1-0.2-0.1-0.4V1437.3z"/>
		<path fill="#FF0000" d="M589.9,1438.7c0-0.2,0.1-0.4,0.2-0.7c0.1-0.2,0.3-0.4,0.4-0.6c0.2-0.2,0.4-0.3,0.6-0.4
			c0.2-0.1,0.4-0.2,0.7-0.2h11c0.2,0,0.4,0.1,0.7,0.2c0.2,0.1,0.4,0.3,0.6,0.4c0.2,0.2,0.3,0.4,0.4,0.6c0.1,0.2,0.2,0.4,0.2,0.7
			v10.4c0,0.2-0.1,0.4-0.2,0.7c-0.1,0.2-0.3,0.4-0.4,0.6c-0.2,0.2-0.4,0.3-0.6,0.4c-0.2,0.1-0.4,0.2-0.7,0.2h-11
			c-0.2,0-0.4-0.1-0.7-0.2c-0.2-0.1-0.4-0.3-0.6-0.4c-0.2-0.2-0.3-0.4-0.4-0.6c-0.1-0.2-0.2-0.4-0.2-0.7V1438.7z M592,1449h10.4
			v-10.3H592V1449z"/>
		<path fill="#FF0000" d="M622.9,1436.8c0.4,0,0.8,0.2,1.1,0.5c0.3,0.3,0.5,0.7,0.5,1.1v1.9c0,0.1,0,0.3-0.2,0.4
			c-0.1,0.1-0.2,0.2-0.4,0.2h-1.1c-0.3,0-0.5-0.2-0.5-0.5v-1.6h-9.9v11.7c0,0.1,0,0.3-0.1,0.4c-0.1,0.1-0.2,0.2-0.4,0.2h-1.1
			c-0.1,0-0.3,0-0.4-0.2c-0.1-0.1-0.2-0.2-0.2-0.4v-13.1c0-0.1,0-0.3,0.2-0.4c0.1-0.1,0.2-0.2,0.4-0.2H622.9z M623.9,1443
			c0.1,0,0.3,0,0.4,0.1c0.1,0.1,0.2,0.2,0.2,0.4v5.8c0,0.4-0.1,0.8-0.4,1.1c-0.3,0.3-0.7,0.4-1.1,0.4h-8.5c-0.1,0-0.2,0-0.3-0.2
			c-0.1-0.1-0.2-0.2-0.2-0.4v-0.8c0-0.1,0-0.3,0.2-0.4c0.1-0.1,0.2-0.1,0.3-0.1h7.9v-4.3h-5.1c-0.1,0-0.3,0-0.4-0.2
			c-0.1-0.1-0.2-0.2-0.2-0.4v-0.7c0-0.1,0.1-0.3,0.2-0.4c0.1-0.1,0.2-0.1,0.4-0.1H623.9z"/>
		<path fill="#FF0000" d="M630.2,1437.2c-0.1-0.1-0.1-0.2-0.1-0.3c0-0.1,0.1-0.2,0.2-0.2h1.9c0.1,0,0.3,0.1,0.4,0.2l3.8,4.9
			c0,0,0.1,0.1,0.1,0.1c0,0.1,0,0.1-0.1,0.1l-1,1.2c-0.1,0.1-0.1,0.1-0.2,0.1c-0.1,0-0.1,0-0.2-0.1L630.2,1437.2z M638.4,1444.7v5.7
			c0,0.3-0.2,0.5-0.5,0.5h-1.1c-0.3,0-0.5-0.2-0.5-0.5v-5.5c0-0.1,0-0.2,0.1-0.4c0.1-0.1,0.1-0.2,0.2-0.3l5.5-7.2
			c0.1-0.1,0.2-0.2,0.4-0.2h1.8c0.1,0,0.2,0.1,0.2,0.2c0,0,0,0.1-0.1,0.3L638.4,1444.7z"/>
	</g>
	<g>
		<linearGradient id="SVGID_19_" gradientUnits="userSpaceOnUse" x1="402.5807" y1="1348.8358" x2="402.5807" y2="1424.1234">
			<stop  offset="0" style="stop-color:#FFFFFF"/>
			<stop  offset="1" style="stop-color:#5A5A5A"/>
		</linearGradient>
		<path fill="url(#SVGID_19_)" d="M401.2,1358.2h3c7.8,0,15.1,3.8,21.9,11.5c4,5.9,6,11.4,6,16.5v4.8l-0.4,0.4h-51.2
			c0,2.6,1.5,6.2,4.6,10.7c4.8,5.5,10.7,8.2,17.5,8.2c5.8,0,11.1-2.1,15.9-6.4h0.2l4.8,4.8c-6.1,5.8-12.7,8.6-19.7,8.6h-2.6
			c-7.9,0-15.2-3.7-21.7-11.1c-4.3-5.7-6.4-11.4-6.4-17.1v-3c0-7.2,3.3-14.1,10-20.7C389,1360.6,395.1,1358.2,401.2,1358.2z
			 M380.5,1384.1h44.2c0-2.6-1.5-6.2-4.6-10.7c-4.9-5.5-10.9-8.2-17.9-8.2c-7.5,0-13.8,3.5-18.7,10.7
			C381.5,1379.5,380.5,1382.2,380.5,1384.1z"/>
		<linearGradient id="SVGID_20_" gradientUnits="userSpaceOnUse" x1="467.6873" y1="1346.8903" x2="467.6873" y2="1437.8126">
			<stop  offset="0" style="stop-color:#FFFFFF"/>
			<stop  offset="1" style="stop-color:#5A5A5A"/>
		</linearGradient>
		<path fill="url(#SVGID_20_)" d="M468.3,1358.2h2.8c8.3,0,15.7,4,22.3,11.9c1.2,1.7,1.8,2.7,1.8,3l-6,3.4
			c-5-7.5-11.7-11.3-19.9-11.3c-8.4,0-15,4.2-19.9,12.7c-1.5,2.9-2.2,6.9-2.2,11.9v10.2h22.1l0.4,0.4v6.2l-0.4,0.4h-22.1v43.5
			l-0.4,0.4h-6.2l-0.4-0.4v-64.2c0-7.9,3.7-15.1,11.1-21.7C456.9,1360.3,462.6,1358.2,468.3,1358.2z"/>
		<linearGradient id="SVGID_21_" gradientUnits="userSpaceOnUse" x1="506.7719" y1="1363.6097" x2="506.7719" y2="1422.6471">
			<stop  offset="0" style="stop-color:#FFFFFF"/>
			<stop  offset="1" style="stop-color:#5A5A5A"/>
		</linearGradient>
		<path fill="url(#SVGID_21_)" d="M503.7,1361.6h6.2l0.4,0.4v54.9l-0.4,0.4h-6.2l-0.4-0.4V1362L503.7,1361.6z"/>
		<linearGradient id="SVGID_22_" gradientUnits="userSpaceOnUse" x1="547.866" y1="1348.8358" x2="547.866" y2="1424.1234">
			<stop  offset="0" style="stop-color:#FFFFFF"/>
			<stop  offset="1" style="stop-color:#5A5A5A"/>
		</linearGradient>
		<path fill="url(#SVGID_22_)" d="M546.3,1358.2h3c8,0,15.3,3.8,21.9,11.3c4.2,5.6,6.2,11.3,6.2,16.9v30.5l-0.4,0.4h-6.2l-0.4-0.4
			v-26.5c0-9.8-3.1-16.7-9.2-20.7c-3.6-2.9-8.1-4.4-13.5-4.4c-9.4,0-16.3,4.8-20.9,14.5c-0.9,2.6-1.4,5.8-1.4,9.6v27.5l-0.4,0.4
			h-6.2l-0.4-0.4v-30.5c0-8.7,4.4-16.4,13.1-23.3C536.8,1359.8,541.8,1358.2,546.3,1358.2z"/>
		<linearGradient id="SVGID_23_" gradientUnits="userSpaceOnUse" x1="614.9836" y1="1348.8358" x2="614.9836" y2="1424.1234">
			<stop  offset="0" style="stop-color:#FFFFFF"/>
			<stop  offset="1" style="stop-color:#5A5A5A"/>
		</linearGradient>
		<path fill="url(#SVGID_23_)" d="M613.6,1358.2h3c7.8,0,15.1,3.8,21.9,11.5c4,5.9,6,11.4,6,16.5v4.8l-0.4,0.4h-51.2
			c0,2.6,1.5,6.2,4.6,10.7c4.8,5.5,10.7,8.2,17.5,8.2c5.8,0,11.1-2.1,15.9-6.4h0.2l4.8,4.8c-6.1,5.8-12.7,8.6-19.7,8.6h-2.6
			c-7.9,0-15.2-3.7-21.7-11.1c-4.3-5.7-6.4-11.4-6.4-17.1v-3c0-7.2,3.3-14.1,10-20.7C601.5,1360.6,607.5,1358.2,613.6,1358.2z
			 M592.9,1384.1h44.2c0-2.6-1.5-6.2-4.6-10.7c-4.9-5.5-10.9-8.2-17.9-8.2c-7.5,0-13.8,3.5-18.7,10.7
			C593.9,1379.5,592.9,1382.2,592.9,1384.1z"/>
	</g>
	<g>
		<linearGradient id="SVGID_24_" gradientUnits="userSpaceOnUse" x1="324.2831" y1="1451.5566" x2="279.3178" y2="1343.9026">
			<stop  offset="0" style="stop-color:#FFFFFF"/>
			<stop  offset="1" style="stop-color:#5A5A5A"/>
		</linearGradient>
		<path fill="url(#SVGID_24_)" d="M326.5,1358.5h-66.1l-6.8-11.9h-14.1l6.8,11.9l6.8,11.9h14.1h38c-5.6,10.3-13.6,19.1-23.3,25.6
			c-3.3,2.2-6.8,4.2-10.5,5.8l7.7,13.6l1.6,2.8l8.6,15.1l9.8,17.3c3.6-1.8,7.2-3.8,10.6-6l-20.1-35.1
			C307.6,1397.9,320.9,1379.8,326.5,1358.5z"/>
		<g>
			<linearGradient id="SVGID_25_" gradientUnits="userSpaceOnUse" x1="366.731" y1="1350.83" x2="331.0378" y2="1419.5087">
				<stop  offset="0" style="stop-color:#FF0000"/>
				<stop  offset="1" style="stop-color:#960000"/>
			</linearGradient>
			<path fill="url(#SVGID_25_)" d="M357.1,1346.6c-2.6,30.3-16.9,57.2-38.4,76.3l6.1,10.7c22.2-18.9,37.8-45.2,43-75.1
				c0.7-3.9,1.2-7.9,1.5-11.9H357.1z"/>
			<linearGradient id="SVGID_26_" gradientUnits="userSpaceOnUse" x1="320.0984" y1="1418.4989" x2="351.853" y2="1351.7894">
				<stop  offset="0" style="stop-color:#FF0000"/>
				<stop  offset="1" style="stop-color:#960000"/>
			</linearGradient>
			<path fill="url(#SVGID_26_)" d="M357.1,1346.6h-12.5c-0.4,4-1,8-1.9,11.9c-4.5,20.8-15.4,39.3-30.4,53.3l6.3,11.1
				C340.2,1403.9,354.5,1376.9,357.1,1346.6z"/>
		</g>
		<linearGradient id="SVGID_27_" gradientUnits="userSpaceOnUse" x1="287.3284" y1="1341.6293" x2="308.7444" y2="1422.1237">
			<stop  offset="0" style="stop-color:#FFFFFF"/>
			<stop  offset="1" style="stop-color:#5A5A5A"/>
		</linearGradient>
		<path fill="url(#SVGID_27_)" d="M335.9,1358.5c0.9-3.9,1.6-7.8,2-11.9h-9.2H313h-73.6l20.9,11.9h66.1
			c-5.5,21.3-18.9,39.4-36.8,51.1l20.1,35.1c3.3-2.1,6.5-4.2,9.5-6.6l-7.9-13.8l0,0l-4.5-7.8h0l-3.4-5.9
			C319.4,1397.5,331,1379.3,335.9,1358.5z"/>
	</g>
	<g>
		<g>
			<g>
				<linearGradient id="SVGID_28_" gradientUnits="userSpaceOnUse" x1="92.4149" y1="1348.8358" x2="92.4149" y2="1424.1235">
					<stop  offset="0" style="stop-color:#FFFFFF"/>
					<stop  offset="1" style="stop-color:#5A5A5A"/>
				</linearGradient>
				<path fill="url(#SVGID_28_)" d="M90.8,1358.4H94c7.5,0,14.6,3.6,21.3,10.7c4.4,6,6.6,11.8,6.6,17.3v3.2
					c0,7.5-3.6,14.6-10.7,21.3c-6,4.4-11.8,6.6-17.3,6.6h-3.2c-7.5,0-14.6-3.6-21.3-10.7c-4.4-6-6.6-11.8-6.6-17.3v-3.2
					c0-7.5,3.6-14.6,10.7-21.3C79.5,1360.6,85.3,1358.4,90.8,1358.4z M69.9,1388.1c0,8.7,4.3,15.4,12.9,20.1
					c3.2,1.5,6.4,2.2,9.9,2.2c8.7,0,15.4-4.3,20.1-12.9c1.5-3.2,2.2-6.4,2.2-9.9c0-8.7-4.3-15.4-12.9-20.1c-3.2-1.5-6.4-2.2-9.9-2.2
					c-8.7,0-15.4,4.3-20.1,12.9C70.6,1381.4,69.9,1384.7,69.9,1388.1z"/>
				<linearGradient id="SVGID_29_" gradientUnits="userSpaceOnUse" x1="157.5785" y1="1349.3" x2="157.5785" y2="1420.921">
					<stop  offset="0" style="stop-color:#FFFFFF"/>
					<stop  offset="1" style="stop-color:#5A5A5A"/>
				</linearGradient>
				<path fill="url(#SVGID_29_)" d="M158.2,1358.4h2.8c8.3,0,15.7,4,22.3,11.9c1.2,1.7,1.8,2.7,1.8,3l-6,3.4
					c-5-7.5-11.7-11.3-19.9-11.3c-8.4,0-15.1,4.2-19.9,12.7c-1.5,2.9-2.2,6.9-2.2,11.9v7.2h22.1l0.4,0.4v6.2l-0.4,0.4h-22.1v26.6
					l-0.4,0.4h-6.2l-0.4-0.4v-44.3c0-7.9,3.7-15.2,11.1-21.7C146.8,1360.5,152.5,1358.4,158.2,1358.4z"/>
				<linearGradient id="SVGID_30_" gradientUnits="userSpaceOnUse" x1="220.7309" y1="1348.8358" x2="220.7309" y2="1424.1234">
					<stop  offset="0" style="stop-color:#FFFFFF"/>
					<stop  offset="1" style="stop-color:#5A5A5A"/>
				</linearGradient>
				<path fill="url(#SVGID_30_)" d="M193.6,1346.3h6.2l0.4,0.4v24.9h22.1l0.4,0.4v6.4l-0.4,0.4h-22.1v7c0,11.3,4.7,18.9,14.1,22.9
					c2.7,1.1,5.4,1.6,8,1.6c8.4,0,15.1-3.8,19.9-11.3c2.5,1.3,4.6,2.5,6,3.6c-3.2,6.1-9,10.7-17.3,13.7c-2.7,0.7-5,1-6.8,1h-2.8
					c-8.1,0-15.4-3.8-21.9-11.3c-4.2-5.6-6.2-11.2-6.2-16.9v-42.6L193.6,1346.3z"/>
			</g>
		</g>
		<g>
			<linearGradient id="SVGID_31_" gradientUnits="userSpaceOnUse" x1="29.8613" y1="1344.1998" x2="29.8613" y2="1424.4561">
				<stop  offset="0" style="stop-color:#FFFFFF"/>
				<stop  offset="1" style="stop-color:#5A5A5A"/>
			</linearGradient>
			<path fill="url(#SVGID_31_)" d="M46.2,1400.2c0-3.2-1.2-5.9-3.6-8.1c-2.4-2.2-6.7-4-12.9-5.5c-7.5-1.8-13.3-4.4-17.5-7.9
				c-4.2-3.5-6.3-7.8-6.3-13.1c0-5.5,2.3-10.1,6.8-13.8c4.5-3.7,10.4-5.6,17.5-5.6c7.7,0,13.9,2.1,18.5,6.4
				c4.6,4.2,6.8,9.2,6.6,14.8l-0.1,0.3h-9.1c0-4.1-1.4-7.5-4.1-10.1c-2.7-2.6-6.7-3.8-11.8-3.8c-4.8,0-8.4,1.1-10.9,3.2
				c-2.5,2.2-3.8,5-3.8,8.4c0,3.1,1.4,5.6,4.1,7.7c2.7,2.1,7.2,3.9,13.4,5.4c7.4,1.8,13.1,4.6,17,8.2c3.9,3.6,5.8,8,5.8,13.4
				c0,5.7-2.3,10.3-7,13.7c-4.7,3.5-10.7,5.2-18.2,5.2c-7.1,0-13.3-1.9-18.7-5.8c-5.4-3.8-8-9-7.9-15.4l0.1-0.3h9.1
				c0,4.5,1.7,8,5,10.3c3.3,2.4,7.5,3.5,12.4,3.5c4.8,0,8.6-1,11.5-3C44.8,1406.5,46.2,1403.7,46.2,1400.2z"/>
		</g>
	</g>
	<linearGradient id="SVGID_32_" gradientUnits="userSpaceOnUse" x1="506.7719" y1="1346.7609" x2="506.7719" y2="1360.4335">
		<stop  offset="0" style="stop-color:#FF0000"/>
		<stop  offset="1" style="stop-color:#960000"/>
	</linearGradient>
	<circle fill="url(#SVGID_32_)" cx="506.8" cy="1352.7" r="6.4"/>
</g>
<g>
	<g opacity="0.7">
		<g>
			
				<circle fill="none" stroke="#969696" stroke-miterlimit="10" stroke-dasharray="1.9996,1.9996" cx="3373.2" cy="1398.6" r="178.2"/>
		</g>
		<g>
			
				<circle fill="none" stroke="#969696" stroke-miterlimit="10" stroke-dasharray="1.9977,1.9977" cx="3373.2" cy="1398.6" r="239.7"/>
		</g>
		<g>
			
				<circle fill="none" stroke="#969696" stroke-miterlimit="10" stroke-dasharray="1.9992,1.9992" cx="3373.2" cy="1398.6" r="256.4"/>
		</g>
		<g>
			<circle fill="none" stroke="#969696" stroke-miterlimit="10" stroke-dasharray="2,2" cx="3373.2" cy="1398.6" r="317.7"/>
		</g>
		
			<line fill="none" stroke="#969696" stroke-miterlimit="10" stroke-dasharray="2,2" x1="3050.3" y1="1423.7" x2="3697.5" y2="1423.7"/>
		
			<line fill="none" stroke="#969696" stroke-miterlimit="10" stroke-dasharray="2,2" x1="3050.3" y1="1482.9" x2="3697.5" y2="1482.9"/>
		
			<line fill="none" stroke="#969696" stroke-miterlimit="10" stroke-dasharray="2,2" x1="3253.8" y1="1108" x2="3572.1" y2="1663.1"/>
		
			<line fill="none" stroke="#969696" stroke-miterlimit="10" stroke-dasharray="2,2" x1="3269.7" y1="1100.4" x2="3583.2" y2="1647"/>
		
			<line fill="none" stroke="#969696" stroke-miterlimit="10" stroke-dasharray="2,2" x1="3201.8" y1="1136.4" x2="3518.3" y2="1688.4"/>
	</g>
	<g>
		<linearGradient id="SVGID_33_" gradientUnits="userSpaceOnUse" x1="3577.7312" y1="1684.9291" x2="3465.7659" y2="1416.8666">
			<stop  offset="0" style="stop-color:#FFFFFF"/>
			<stop  offset="1" style="stop-color:#5A5A5A"/>
		</linearGradient>
		<path fill="url(#SVGID_33_)" d="M3583.2,1453.3h-164.6l-17-29.6h-35.2l17,29.6l17,29.6h35.2h94.5c-13.9,25.7-33.8,47.7-58,63.9
			c-8.2,5.5-16.9,10.3-26,14.4l19.2,33.8l3.9,7l21.4,37.7l24.5,43.2c9.1-4.5,17.9-9.5,26.4-14.9l-50.1-87.5
			C3536.1,1551.4,3569.4,1506.3,3583.2,1453.3z"/>
		<g>
			<linearGradient id="SVGID_34_" gradientUnits="userSpaceOnUse" x1="3683.428" y1="1434.1162" x2="3594.5505" y2="1605.1288">
				<stop  offset="0" style="stop-color:#FF0000"/>
				<stop  offset="1" style="stop-color:#960000"/>
			</linearGradient>
			<path fill="url(#SVGID_34_)" d="M3659.5,1423.7c-6.5,75.5-42.2,142.5-95.7,190l15.3,26.7c55.2-47,94.1-112.6,107-187.1
				c1.7-9.7,3-19.6,3.7-29.6H3659.5z"/>
			<linearGradient id="SVGID_35_" gradientUnits="userSpaceOnUse" x1="3567.311" y1="1602.6143" x2="3646.3811" y2="1436.5052">
				<stop  offset="0" style="stop-color:#FF0000"/>
				<stop  offset="1" style="stop-color:#960000"/>
			</linearGradient>
			<path fill="url(#SVGID_35_)" d="M3659.5,1423.7h-31.1c-1,10.1-2.6,19.9-4.7,29.6c-11.3,51.9-38.2,97.9-75.7,132.8l15.8,27.6
				C3617.3,1566.2,3653,1499.1,3659.5,1423.7z"/>
		</g>
		<linearGradient id="SVGID_36_" gradientUnits="userSpaceOnUse" x1="3485.7126" y1="1411.2059" x2="3539.0391" y2="1611.64">
			<stop  offset="0" style="stop-color:#FFFFFF"/>
			<stop  offset="1" style="stop-color:#5A5A5A"/>
		</linearGradient>
		<path fill="url(#SVGID_36_)" d="M3606.6,1453.3c2.3-9.7,4-19.5,5.1-29.6h-23h-39h-183.2l52.1,29.6h164.6
			c-13.8,53-47.1,98-91.7,127.1l50.1,87.5c8.2-5.1,16.1-10.6,23.7-16.4l-19.6-34.3l0-0.1l-11.1-19.4h0l-8.4-14.7
			C3565.7,1550.4,3594.5,1505.1,3606.6,1453.3z"/>
	</g>
</g>
<g>
	<g opacity="0.7">
		<g>
			
				<circle fill="none" stroke="#969696" stroke-miterlimit="10" stroke-dasharray="1.9996,1.9996" cx="3373.2" cy="55.6" r="178.2"/>
		</g>
		<g>
			
				<circle fill="none" stroke="#969696" stroke-miterlimit="10" stroke-dasharray="1.9977,1.9977" cx="3373.2" cy="55.6" r="239.7"/>
		</g>
		<g>
			
				<circle fill="none" stroke="#969696" stroke-miterlimit="10" stroke-dasharray="1.9992,1.9992" cx="3373.2" cy="55.6" r="256.4"/>
		</g>
		<g>
			<circle fill="none" stroke="#969696" stroke-miterlimit="10" stroke-dasharray="2,2" cx="3373.2" cy="55.6" r="317.7"/>
		</g>
		<line fill="none" stroke="#969696" stroke-miterlimit="10" stroke-dasharray="2,2" x1="3050.3" y1="80.6" x2="3697.5" y2="80.6"/>
		
			<line fill="none" stroke="#969696" stroke-miterlimit="10" stroke-dasharray="2,2" x1="3050.3" y1="139.9" x2="3697.5" y2="139.9"/>
		
			<line fill="none" stroke="#969696" stroke-miterlimit="10" stroke-dasharray="2,2" x1="3253.8" y1="-235" x2="3572.1" y2="320.1"/>
		
			<line fill="none" stroke="#969696" stroke-miterlimit="10" stroke-dasharray="2,2" x1="3269.7" y1="-242.7" x2="3583.2" y2="303.9"/>
		
			<line fill="none" stroke="#969696" stroke-miterlimit="10" stroke-dasharray="2,2" x1="3201.8" y1="-206.6" x2="3518.3" y2="345.3"/>
	</g>
	<g>
		<linearGradient id="SVGID_37_" gradientUnits="userSpaceOnUse" x1="3577.7312" y1="341.8796" x2="3465.7659" y2="73.8171">
			<stop  offset="0" style="stop-color:#005AAA"/>
			<stop  offset="1" style="stop-color:#000046"/>
		</linearGradient>
		<path fill="url(#SVGID_37_)" d="M3583.2,110.3h-164.6l-17-29.6h-35.2l17,29.6l17,29.6h35.2h94.5c-13.9,25.7-33.8,47.7-58,63.9
			c-8.2,5.5-16.9,10.3-26,14.4l19.2,33.8l3.9,7l21.4,37.7l24.5,43.2c9.1-4.5,17.9-9.5,26.4-14.9l-50.1-87.5
			C3536.1,208.3,3569.4,163.2,3583.2,110.3z"/>
		<g>
			<linearGradient id="SVGID_38_" gradientUnits="userSpaceOnUse" x1="3683.428" y1="91.0668" x2="3594.5505" y2="262.0793">
				<stop  offset="0" style="stop-color:#FF0000"/>
				<stop  offset="1" style="stop-color:#960000"/>
			</linearGradient>
			<path fill="url(#SVGID_38_)" d="M3659.5,80.6c-6.5,75.5-42.2,142.5-95.7,190l15.3,26.7c55.2-47,94.1-112.6,107-187.1
				c1.7-9.7,3-19.6,3.7-29.6H3659.5z"/>
			<linearGradient id="SVGID_39_" gradientUnits="userSpaceOnUse" x1="3567.311" y1="259.5647" x2="3646.3811" y2="93.4557">
				<stop  offset="0" style="stop-color:#FF0000"/>
				<stop  offset="1" style="stop-color:#960000"/>
			</linearGradient>
			<path fill="url(#SVGID_39_)" d="M3659.5,80.6h-31.1c-1,10.1-2.6,19.9-4.7,29.6c-11.3,51.9-38.2,97.9-75.7,132.8l15.8,27.6
				C3617.3,223.2,3653,156.1,3659.5,80.6z"/>
		</g>
		<linearGradient id="SVGID_40_" gradientUnits="userSpaceOnUse" x1="3485.7126" y1="68.1564" x2="3539.0391" y2="268.5905">
			<stop  offset="0" style="stop-color:#005AAA"/>
			<stop  offset="1" style="stop-color:#000046"/>
		</linearGradient>
		<path fill="url(#SVGID_40_)" d="M3606.6,110.3c2.3-9.7,4-19.5,5.1-29.6h-23h-39h-183.2l52.1,29.6h164.6
			c-13.8,53-47.1,98-91.7,127.1l50.1,87.5c8.2-5.1,16.1-10.6,23.7-16.4l-19.6-34.3l0-0.1l-11.1-19.4h0l-8.4-14.7
			C3565.7,207.3,3594.5,162,3606.6,110.3z"/>
	</g>
</g>
<g>
	<linearGradient id="SVGID_41_" gradientUnits="userSpaceOnUse" x1="1951.4279" y1="1619.4359" x2="1763.6597" y2="1169.8896">
		<stop  offset="0" style="stop-color:#FFFFFF"/>
		<stop  offset="1" style="stop-color:#969696"/>
	</linearGradient>
	<path fill="url(#SVGID_41_)" d="M1960.5,1231h-276l-28.5-49.7h-59l28.5,49.7l28.5,49.7h59h158.6c-23.2,43.1-56.7,79.9-97.2,107.1
		c-13.8,9.2-28.4,17.4-43.6,24.2l32.2,56.6l6.6,11.7l35.9,63.2l41.1,72.4c15.2-7.6,30-15.9,44.3-24.9l-84.1-146.8
		C1881.6,1395.4,1937.4,1319.8,1960.5,1231z"/>
	<g>
		<linearGradient id="SVGID_42_" gradientUnits="userSpaceOnUse" x1="2128.6836" y1="1198.8177" x2="1979.6343" y2="1485.6091">
			<stop  offset="0" style="stop-color:#FF0000"/>
			<stop  offset="1" style="stop-color:#960000"/>
		</linearGradient>
		<path fill="url(#SVGID_42_)" d="M2088.6,1181.3c-10.9,126.5-70.7,239-160.4,318.6l25.7,44.8c92.6-78.9,157.8-188.8,179.5-313.7
			c2.8-16.3,5-32.9,6.3-49.7H2088.6z"/>
		<linearGradient id="SVGID_43_" gradientUnits="userSpaceOnUse" x1="1933.953" y1="1481.3922" x2="2066.5554" y2="1202.824">
			<stop  offset="0" style="stop-color:#FF0000"/>
			<stop  offset="1" style="stop-color:#960000"/>
		</linearGradient>
		<path fill="url(#SVGID_43_)" d="M2088.6,1181.3h-52.1c-1.6,16.9-4.4,33.4-7.9,49.7c-18.9,87-64.1,164.1-126.9,222.7l26.5,46.2
			C2017.8,1420.4,2077.6,1307.9,2088.6,1181.3z"/>
	</g>
	<linearGradient id="SVGID_44_" gradientUnits="userSpaceOnUse" x1="1797.111" y1="1160.3966" x2="1886.5406" y2="1496.5287">
		<stop  offset="0" style="stop-color:#FFFFFF"/>
		<stop  offset="1" style="stop-color:#969696"/>
	</linearGradient>
	<path fill="url(#SVGID_44_)" d="M1999.8,1231c3.8-16.2,6.7-32.8,8.5-49.7h-38.5h-65.4h-307.2l87.5,49.7h276
		c-23.1,88.8-78.9,164.4-153.9,213.2l84.1,146.8c13.7-8.6,27-17.7,39.8-27.5l-32.9-57.4l-0.1-0.1l-18.6-32.5h0l-14.1-24.7
		C1931.2,1393.8,1979.5,1317.8,1999.8,1231z"/>
</g>
<g>
	<g>
		<linearGradient id="SVGID_45_" gradientUnits="userSpaceOnUse" x1="4627.8389" y1="74.5438" x2="4578.1812" y2="-44.3444">
			<stop  offset="0" style="stop-color:#005AB4"/>
			<stop  offset="1" style="stop-color:#000050"/>
		</linearGradient>
		<path fill="url(#SVGID_45_)" d="M4630.2-28.2h-73l-7.5-13.1h-15.6l7.5,13.1l7.5,13.1h15.6h41.9c-6.1,11.4-15,21.1-25.7,28.3
			c-3.6,2.4-7.5,4.6-11.5,6.4l8.5,15l1.8,3.1l9.5,16.7l10.9,19.1c4-2,7.9-4.2,11.7-6.6l-22.2-38.8
			C4609.4,15.3,4624.1-4.7,4630.2-28.2z"/>
		<g>
			<linearGradient id="SVGID_46_" gradientUnits="userSpaceOnUse" x1="4674.7168" y1="-36.694" x2="4635.2988" y2="39.1516">
				<stop  offset="0" style="stop-color:#FF0000"/>
				<stop  offset="1" style="stop-color:#960000"/>
			</linearGradient>
			<path fill="url(#SVGID_46_)" d="M4664.1-41.3c-2.9,33.5-18.7,63.2-42.4,84.3l6.8,11.8c24.5-20.9,41.7-49.9,47.5-83
				c0.8-4.3,1.3-8.7,1.7-13.1H4664.1z"/>
			<linearGradient id="SVGID_47_" gradientUnits="userSpaceOnUse" x1="4623.2178" y1="38.0364" x2="4658.2861" y2="-35.6345">
				<stop  offset="0" style="stop-color:#FF0000"/>
				<stop  offset="1" style="stop-color:#960000"/>
			</linearGradient>
			<path fill="url(#SVGID_47_)" d="M4664.1-41.3h-13.8c-0.4,4.5-1.2,8.8-2.1,13.1c-5,23-17,43.4-33.6,58.9l7,12.2
				C4645.4,21.9,4661.2-7.9,4664.1-41.3z"/>
		</g>
		<linearGradient id="SVGID_48_" gradientUnits="userSpaceOnUse" x1="4587.0278" y1="-46.8549" x2="4610.6787" y2="42.0395">
			<stop  offset="0" style="stop-color:#005AB4"/>
			<stop  offset="1" style="stop-color:#000050"/>
		</linearGradient>
		<path fill="url(#SVGID_48_)" d="M4640.6-28.2c1-4.3,1.8-8.7,2.2-13.1h-10.2h-17.3h-81.3l23.1,13.1h73
			c-6.1,23.5-20.9,43.5-40.7,56.4l22.2,38.8c3.6-2.3,7.1-4.7,10.5-7.3l-8.7-15.2l0,0l-4.9-8.6l0,0l-3.7-6.5
			C4622.5,14.9,4635.3-5.2,4640.6-28.2z"/>
	</g>
	<g>
		<text transform="matrix(1 0 0 1 4666.8408 56.3372)" font-family="'alberto'" font-size="102.9743">efine</text>
	</g>
	<g>
		<text transform="matrix(1 0 0 1 4366.3652 56.3372)" font-family="'alberto'" font-size="102.9743">oft</text>
	</g>
	<text transform="matrix(0.9989 0 0 1 4308.4478 56.9651)" font-family="'Roboto-Regular'" font-size="93.3445">S</text>
	<g>
		<text transform="matrix(1 0 0 1 4751.6338 72.4758)" font-family="'neo-latina'" font-size="23.1324" letter-spacing="3">TECHNOLOGY</text>
	</g>
</g>
</svg>
